# xmcd CD database file
#
# Track frame offsets:
#	150
#	7260
#	27236
#	54299
#	73612
#	92128
#	104043
#	112813
#	126982
#	151053
#	170413
#	191025
#	223493
#	242210
#	265157
#	290652
#
# Disc length: 4180 seconds
#
# Revision: 0
# Processed by: cddbd v1.5.1PL2 Copyright (c) Steve Scherf et al.
# Submitted via: CDex 1.51
#
DISCID=f0105210
DTITLE=Gackt - MARS
DYEAR=1900
DGENRE=JPop
TTITLE0=Ares
TTITLE1=Asrun Dream
TTITLE2=絵夢 〜for my dear〜
TTITLE3=U+K
TTITLE4=Vanilla (MARS ver.)
TTITLE5=freesia 〜op.1〜
TTITLE6=freesia 〜op.2〜
TTITLE7=illness illusion
TTITLE8=Mirror (MARS ver.)
TTITLE9=dears
TTITLE10=OASIS (MARS ver.)
TTITLE11=この誰もいない部屋で
TTITLE12=鶺鴒 〜seki-ray〜
TTITLE13=鶺鴒 〜seki-ray〜
TTITLE14=再会 〜Story〜
TTITLE15=dear (Live Version)
EXTD=
EXTT0=
EXTT1=
EXTT2=
EXTT3=
EXTT4=
EXTT5=
EXTT6=
EXTT7=
EXTT8=
EXTT9=
EXTT10=
EXTT11=
EXTT12=
EXTT13=
EXTT14=
EXTT15=
PLAYORDER=
